<mxfile host="app.diagrams.net" agent="Mozilla/5.0 (Windows NT 10.0; Win64; x64) AppleWebKit/537.36 (KHTML, like Gecko) Chrome/135.0.0.0 Safari/537.36" version="26.2.13">
  <diagram name="Seite-1" id="B9Zcc0VveMhNRUHHeVgv">
    <mxGraphModel dx="1491" dy="753" grid="1" gridSize="10" guides="1" tooltips="1" connect="1" arrows="1" fold="1" page="1" pageScale="1" pageWidth="827" pageHeight="1169" math="0" shadow="0">
      <root>
        <mxCell id="0" />
        <mxCell id="1" parent="0" />
        <mxCell id="TcZgLwTTfY-_UdrEXU90-1" style="edgeStyle=orthogonalEdgeStyle;rounded=0;orthogonalLoop=1;jettySize=auto;html=1;exitX=1;exitY=0.5;exitDx=0;exitDy=0;entryX=0;entryY=0.5;entryDx=0;entryDy=0;" parent="1" source="TcZgLwTTfY-_UdrEXU90-2" target="TcZgLwTTfY-_UdrEXU90-6" edge="1">
          <mxGeometry relative="1" as="geometry" />
        </mxCell>
        <mxCell id="TcZgLwTTfY-_UdrEXU90-2" value="" style="shape=dataStorage;whiteSpace=wrap;html=1;fixedSize=1;" parent="1" vertex="1">
          <mxGeometry x="10" y="200" width="100" height="80" as="geometry" />
        </mxCell>
        <mxCell id="TcZgLwTTfY-_UdrEXU90-3" style="edgeStyle=orthogonalEdgeStyle;rounded=0;orthogonalLoop=1;jettySize=auto;html=1;entryX=0.5;entryY=1;entryDx=0;entryDy=0;" parent="1" source="TcZgLwTTfY-_UdrEXU90-6" target="TcZgLwTTfY-_UdrEXU90-9" edge="1">
          <mxGeometry relative="1" as="geometry" />
        </mxCell>
        <mxCell id="TcZgLwTTfY-_UdrEXU90-5" style="edgeStyle=orthogonalEdgeStyle;rounded=0;orthogonalLoop=1;jettySize=auto;html=1;exitX=1;exitY=0.5;exitDx=0;exitDy=0;entryX=0.5;entryY=0;entryDx=0;entryDy=0;" parent="1" source="TcZgLwTTfY-_UdrEXU90-6" target="TcZgLwTTfY-_UdrEXU90-10" edge="1">
          <mxGeometry relative="1" as="geometry" />
        </mxCell>
        <mxCell id="TcZgLwTTfY-_UdrEXU90-6" value="" style="rounded=0;whiteSpace=wrap;html=1;" parent="1" vertex="1">
          <mxGeometry x="240" y="170" width="360" height="140" as="geometry" />
        </mxCell>
        <mxCell id="TcZgLwTTfY-_UdrEXU90-7" value="" style="rounded=1;whiteSpace=wrap;html=1;" parent="1" vertex="1">
          <mxGeometry x="270" y="195" width="120" height="60" as="geometry" />
        </mxCell>
        <mxCell id="TcZgLwTTfY-_UdrEXU90-8" value="" style="shape=cylinder3;whiteSpace=wrap;html=1;boundedLbl=1;backgroundOutline=1;size=15;" parent="1" vertex="1">
          <mxGeometry x="490" y="185" width="60" height="80" as="geometry" />
        </mxCell>
        <mxCell id="TcZgLwTTfY-_UdrEXU90-9" value="" style="rounded=1;whiteSpace=wrap;html=1;" parent="1" vertex="1">
          <mxGeometry x="620" y="60" width="120" height="60" as="geometry" />
        </mxCell>
        <mxCell id="TcZgLwTTfY-_UdrEXU90-10" value="" style="rounded=1;whiteSpace=wrap;html=1;" parent="1" vertex="1">
          <mxGeometry x="620" y="330" width="120" height="60" as="geometry" />
        </mxCell>
        <mxCell id="TcZgLwTTfY-_UdrEXU90-11" value="Machine Learning" style="text;html=1;align=center;verticalAlign=middle;whiteSpace=wrap;rounded=0;" parent="1" vertex="1">
          <mxGeometry x="635" y="345" width="60" height="30" as="geometry" />
        </mxCell>
        <mxCell id="TcZgLwTTfY-_UdrEXU90-12" value="" style="whiteSpace=wrap;html=1;aspect=fixed;" parent="1" vertex="1">
          <mxGeometry x="850" y="215" width="275" height="275" as="geometry" />
        </mxCell>
        <mxCell id="TcZgLwTTfY-_UdrEXU90-13" value="" style="rounded=1;whiteSpace=wrap;html=1;" parent="1" vertex="1">
          <mxGeometry x="890" y="230" width="210" height="60" as="geometry" />
        </mxCell>
        <mxCell id="TcZgLwTTfY-_UdrEXU90-14" value="" style="rounded=1;whiteSpace=wrap;html=1;" parent="1" vertex="1">
          <mxGeometry x="930" y="340" width="120" height="120" as="geometry" />
        </mxCell>
        <mxCell id="TcZgLwTTfY-_UdrEXU90-15" value="Frontend: HTML, CSS" style="text;html=1;align=center;verticalAlign=middle;whiteSpace=wrap;rounded=0;" parent="1" vertex="1">
          <mxGeometry x="901" y="245" width="60" height="30" as="geometry" />
        </mxCell>
        <mxCell id="TcZgLwTTfY-_UdrEXU90-16" value="" style="rounded=1;whiteSpace=wrap;html=1;" parent="1" vertex="1">
          <mxGeometry x="950" y="410" width="80" height="40" as="geometry" />
        </mxCell>
        <mxCell id="TcZgLwTTfY-_UdrEXU90-17" style="edgeStyle=orthogonalEdgeStyle;rounded=0;orthogonalLoop=1;jettySize=auto;html=1;exitX=1;exitY=0.5;exitDx=0;exitDy=0;entryX=-0.003;entryY=0.529;entryDx=0;entryDy=0;entryPerimeter=0;" parent="1" source="TcZgLwTTfY-_UdrEXU90-10" target="TcZgLwTTfY-_UdrEXU90-12" edge="1">
          <mxGeometry relative="1" as="geometry" />
        </mxCell>
        <mxCell id="TcZgLwTTfY-_UdrEXU90-18" value="" style="shape=image;verticalLabelPosition=bottom;labelBackgroundColor=default;verticalAlign=top;aspect=fixed;imageAspect=0;image=https://cdn-icons-png.flaticon.com/512/9159/9159105.png;" parent="1" vertex="1">
          <mxGeometry x="40" y="220" width="40" height="40" as="geometry" />
        </mxCell>
        <mxCell id="TcZgLwTTfY-_UdrEXU90-19" value="" style="shape=image;verticalLabelPosition=bottom;labelBackgroundColor=default;verticalAlign=top;aspect=fixed;imageAspect=0;image=https://cdn-icons-png.flaticon.com/512/9850/9850908.png;" parent="1" vertex="1">
          <mxGeometry x="310" y="205" width="40" height="40" as="geometry" />
        </mxCell>
        <mxCell id="TcZgLwTTfY-_UdrEXU90-20" value="" style="shape=image;verticalLabelPosition=bottom;labelBackgroundColor=default;verticalAlign=top;aspect=fixed;imageAspect=0;image=https://static-00.iconduck.com/assets.00/sql-database-sql-azure-icon-1955x2048-4pmty46t.png;" parent="1" vertex="1">
          <mxGeometry x="500" y="219.05999999999997" width="40" height="41.88" as="geometry" />
        </mxCell>
        <mxCell id="TcZgLwTTfY-_UdrEXU90-21" value="" style="shape=image;verticalLabelPosition=bottom;labelBackgroundColor=default;verticalAlign=top;aspect=fixed;imageAspect=0;image=https://www.relayhumancloud.com/wp-content/uploads/2023/08/power-bi.png;" parent="1" vertex="1">
          <mxGeometry x="640" y="80" width="80" height="21.2" as="geometry" />
        </mxCell>
        <mxCell id="TcZgLwTTfY-_UdrEXU90-22" value="" style="shape=image;verticalLabelPosition=bottom;labelBackgroundColor=default;verticalAlign=top;aspect=fixed;imageAspect=0;image=https://as1.ftcdn.net/jpg/05/88/52/28/1000_F_588522846_MJaC4uliNgj0wtQ4sSD12CwZlsD7IjHH.jpg;" parent="1" vertex="1">
          <mxGeometry x="695" y="340" width="40" height="40" as="geometry" />
        </mxCell>
        <mxCell id="TcZgLwTTfY-_UdrEXU90-23" value="" style="shape=image;verticalLabelPosition=bottom;labelBackgroundColor=default;verticalAlign=top;aspect=fixed;imageAspect=0;image=https://upload.wikimedia.org/wikipedia/commons/d/de/AirflowLogo.png;" parent="1" vertex="1">
          <mxGeometry x="350" y="120" width="110" height="42.53" as="geometry" />
        </mxCell>
        <mxCell id="TcZgLwTTfY-_UdrEXU90-24" value="" style="shape=image;verticalLabelPosition=bottom;labelBackgroundColor=default;verticalAlign=top;aspect=fixed;imageAspect=0;image=https://mms.businesswire.com/media/20230322005274/en/761650/22/postman-logo-vert-2018.jpg;" parent="1" vertex="1">
          <mxGeometry x="961" y="415.5" width="58" height="29" as="geometry" />
        </mxCell>
        <mxCell id="TcZgLwTTfY-_UdrEXU90-25" value="" style="shape=image;verticalLabelPosition=bottom;labelBackgroundColor=default;verticalAlign=top;aspect=fixed;imageAspect=0;image=https://t4.ftcdn.net/jpg/03/22/95/69/360_F_322956978_9ESBVewTYdhSu9G6qf2JazX9tUsdh53g.jpg;" parent="1" vertex="1">
          <mxGeometry x="960" y="345" width="55" height="55" as="geometry" />
        </mxCell>
        <mxCell id="TcZgLwTTfY-_UdrEXU90-26" value="" style="shape=image;verticalLabelPosition=bottom;labelBackgroundColor=default;verticalAlign=top;aspect=fixed;imageAspect=0;image=https://cdn-icons-png.flaticon.com/512/2721/2721264.png;" parent="1" vertex="1">
          <mxGeometry x="1019" y="234" width="52" height="52" as="geometry" />
        </mxCell>
        <mxCell id="TcZgLwTTfY-_UdrEXU90-27" value="" style="shape=image;verticalLabelPosition=bottom;labelBackgroundColor=default;verticalAlign=top;aspect=fixed;imageAspect=0;image=https://static-00.iconduck.com/assets.00/docker-icon-2048x1753-uguk29a7.png;" parent="1" vertex="1">
          <mxGeometry x="952.5" y="140.81" width="75" height="64.19" as="geometry" />
        </mxCell>
      </root>
    </mxGraphModel>
  </diagram>
</mxfile>
